<?xml version="1.0" encoding="utf-8"?>
<COLLADA xmlns="http://www.collada.org/2005/11/COLLADASchema" version="1.4.1" xmlns:xsi="http://www.w3.org/2001/XMLSchema-instance">
  <asset>
    <contributor>
      <author>Blender User</author>
      <authoring_tool>Blender 4.2.9 LTS commit date:2025-04-14, commit time:12:24, hash:a10f621e649a</authoring_tool>
    </contributor>
    <created>2026-05-09T15:27:53</created>
    <modified>2026-05-09T15:27:53</modified>
    <unit name="meter" meter="1"/>
    <up_axis>Z_UP</up_axis>
  </asset>
  <library_images/>
  <library_geometries>
    <geometry id="camera_stand_Link-mesh" name="camera_stand_Link">
      <mesh>
        <source id="camera_stand_Link-mesh-positions">
          <float_array id="camera_stand_Link-mesh-positions-array" count="726">-0.0119363 0.02974134 -0.02722781 -0.01207679 0.02974134 -0.0292229 -0.0119363 -0.03025859 -0.02722781 -0.01207679 -0.03025859 -0.0292229 -0.01179587 0.03174132 -0.02523273 -0.01179587 0.03374135 -0.02523273 -0.01184964 0.03158909 -0.0259962 -0.0119034 0.03343683 -0.02675968 -0.01189517 0.03115552 -0.02664345 -0.01199454 0.03256976 -0.02805417 -0.01192563 0.03050673 -0.02707594 -0.01205539 0.03127205 -0.02891916 -0.00996977 0.03174132 7.03012e-4 -0.00996977 0.03374135 7.03012e-4 -0.009448051 0.03174132 0.00326085 -0.009448051 0.03374135 0.00326085 -0.008282124 0.03174132 0.005596518 -0.008282124 0.03374135 0.005596518 -0.006551384 0.03174132 0.007550895 -0.006551384 0.03374135 0.007550895 -0.004373848 0.03174132 0.008990705 -0.004373848 0.03374135 0.008990705 -0.001897811 0.03174132 0.009817838 -0.001897811 0.03374135 0.009817838 7.07883e-4 0.03174132 0.00997591 7.07883e-4 0.03374135 0.00997591 0.003265738 0.03174132 0.00945425 0.003265738 0.03374135 0.00945425 0.005601406 0.03174132 0.008288323 0.005601406 0.03374135 0.008288323 0.007555723 0.03174132 0.006557583 0.007555723 0.03374135 0.006557583 0.008995532 0.03174132 0.004380047 0.008995532 0.03374135 0.004380047 0.009822666 0.03174132 0.00190401 0.009822666 0.03374135 0.00190401 0.009980797 0.03174132 -7.01692e-4 0.009980797 0.03374135 -7.01692e-4 0.00815469 0.03174132 -0.02663743 0.00815469 0.03374135 -0.02663743 0.008014202 0.02974134 -0.02863252 0.007873773 0.02974134 -0.0306276 0.00802493 0.03050673 -0.02848064 0.007895112 0.03127205 -0.03032386 0.008055388 0.03115552 -0.02804815 0.007956027 0.03256976 -0.02945888 0.008100926 0.03158909 -0.02740091 0.008047163 0.03343683 -0.02816438 0.008014202 -0.03025859 -0.02863252 0.007873773 -0.03025859 -0.0306276 0.008084475 -0.03199064 -0.02763497 0.00815469 -0.03225862 -0.02663743 0.00815469 -0.0342586 -0.02663743 0.007895112 -0.03178936 -0.03032386 0.008033037 -0.03125864 -0.02836525 0.007956027 -0.03308701 -0.02945888 0.008047163 -0.03395414 -0.02816438 0.009980797 -0.03225862 -7.01692e-4 0.009980797 -0.0342586 -7.01692e-4 -0.00996977 -0.03225862 7.03012e-4 -0.00996977 -0.0342586 7.03012e-4 -0.009448051 -0.0342586 0.00326085 -0.009448051 -0.03225862 0.00326085 -0.008282124 -0.0342586 0.005596518 -0.008282124 -0.03225862 0.005596518 -0.006551384 -0.0342586 0.007550895 -0.006551384 -0.03225862 0.007550895 -0.004373848 -0.0342586 0.008990705 -0.004373848 -0.03225862 0.008990705 -0.001897811 -0.0342586 0.009817838 -0.001897811 -0.03225862 0.009817838 7.07883e-4 -0.0342586 0.00997591 7.07883e-4 -0.03225862 0.00997591 0.003265738 -0.0342586 0.00945425 0.003265738 -0.03225862 0.00945425 0.005601406 -0.0342586 0.008288323 0.005601406 -0.03225862 0.008288323 0.007555723 -0.0342586 0.006557583 0.007555723 -0.03225862 0.006557583 0.008995532 -0.0342586 0.004380047 0.008995532 -0.03225862 0.004380047 0.009822666 -0.0342586 0.00190401 0.009822666 -0.03225862 0.00190401 -0.01179587 -0.03225862 -0.02523273 -0.01179587 -0.0342586 -0.02523273 -0.01191753 -0.03125864 -0.02696055 -0.0119034 -0.03395414 -0.02675968 -0.01186609 -0.03199064 -0.02623027 -0.01199454 -0.03308701 -0.02805417 -0.01205539 -0.03178936 -0.02891916 1.6356e-4 -0.0342586 0.002245068 0.001264572 -0.0342586 0.001865386 0.002028286 -0.0342586 9.86024e-4 0.001870214 -0.0342586 -0.001258373 0.002249956 -0.0342586 -1.57369e-4 -0.001253545 -0.0342586 -0.001864016 -0.002017199 -0.0342586 -9.84704e-4 -0.002238869 -0.0342586 1.58689e-4 -0.001859188 -0.0342586 0.001259684 -9.79834e-4 -0.0342586 0.002023398 -5.04671e-5 -0.0342586 -0.01503252 5.11415e-4 -0.0342586 -0.007052242 4.12888e-4 -0.0342586 -0.006544113 7.34752e-5 -0.0342586 -0.006153225 -2.19228e-4 -0.0342586 -0.01552188 -6.10058e-4 -0.0342586 -0.01586127 -0.001118183 -0.0342586 -0.01595979 -0.001607537 -0.0342586 -0.01579105 -0.001946985 -0.0342586 -0.01540023 -0.002045512 -0.0342586 -0.01489204 -0.001483619 -0.0342586 -0.006911814 -1.52499e-4 -0.0342586 -0.002243757 -0.001314878 -0.0342586 -0.00642246 9.90895e-4 -0.0342586 -0.002022087 -9.24055e-4 -0.0342586 -0.006083011 -4.15881e-4 -0.0342586 -0.005984485 -1.52499e-4 0.03374135 -0.002243757 7.34752e-5 0.03374135 -0.006153225 -0.001253545 0.03374135 -0.001864016 -4.15881e-4 0.03374135 -0.005984485 -0.002017199 0.03374135 -9.84704e-4 -0.001946985 0.03374135 -0.01540023 -0.001607537 0.03374135 -0.01579105 -0.001118183 0.03374135 -0.01595979 -6.10058e-4 0.03374135 -0.01586127 -2.19228e-4 0.03374135 -0.01552188 -5.04671e-5 0.03374135 -0.01503252 5.11415e-4 0.03374135 -0.007052242 0.001264572 0.03374135 0.001865386 1.6356e-4 0.03374135 0.002245068 -9.79834e-4 0.03374135 0.002023398 -0.001859188 0.03374135 0.001259684 9.90895e-4 0.03374135 -0.002022087 4.12888e-4 0.03374135 -0.006544113 0.001870214 0.03374135 -0.001258373 0.002249956 0.03374135 -1.57369e-4 0.002028286 0.03374135 9.86024e-4 -0.002238869 0.03374135 1.58689e-4 -9.24055e-4 0.03374135 -0.006083011 -0.001314878 0.03374135 -0.00642246 -0.001483619 0.03374135 -0.006911814 -0.002045512 0.03374135 -0.01489204 -4.556e-4 0.02224135 -0.03004109 -6.76113e-4 0.02306634 -0.0300256 -0.002924442 0.02367025 -0.02986729 -0.00210148 0.02389132 -0.02992522 -0.001278519 0.02367025 -0.02998316 -6.76113e-4 0.02141636 -0.0300256 -0.001278519 0.02081239 -0.02998316 -0.003526926 0.02306634 -0.02982485 -0.003747403 0.02224135 -0.02980935 -0.003526926 0.02141636 -0.02982485 -0.002924442 0.02081239 -0.02986729 -6.76113e-4 -0.02358359 -0.0300256 -4.556e-4 -0.0227586 -0.03004109 -6.76113e-4 -0.02193361 -0.0300256 -0.001278519 -0.0213297 -0.02998316 -0.00210148 0.02059131 -0.02992522 -0.00210148 -0.02110862 -0.02992522 -0.003526926 -0.02358359 -0.02982485 -0.002924442 -0.02418756 -0.02986729 -0.00210148 -0.02440863 -0.02992522 -0.001278519 -0.02418756 -0.02998316 -0.002924442 -0.0213297 -0.02986729 -0.003526926 -0.02193361 -0.02982485 -0.003747403 -0.0227586 -0.02980935 -1.52499e-4 -0.03225862 -0.002243757 7.34752e-5 -0.03225862 -0.006153225 -0.001253545 -0.03225862 -0.001864016 -4.15881e-4 -0.03225862 -0.005984485 -0.002017199 -0.03225862 -9.84704e-4 -0.001946985 -0.03225862 -0.01540023 -0.001607537 -0.03225862 -0.01579105 -0.001118183 -0.03225862 -0.01595979 -6.10058e-4 -0.03225862 -0.01586127 -2.19228e-4 -0.03225862 -0.01552188 -5.04671e-5 -0.03225862 -0.01503252 5.11415e-4 -0.03225862 -0.007052242 0.001264572 -0.03225862 0.001865386 1.6356e-4 -0.03225862 0.002245068 -9.79834e-4 -0.03225862 0.002023398 -0.001859188 -0.03225862 0.001259684 9.90895e-4 -0.03225862 -0.002022087 4.12888e-4 -0.03225862 -0.006544113 0.001870214 -0.03225862 -0.001258373 0.002249956 -0.03225862 -1.57369e-4 0.002028286 -0.03225862 9.86024e-4 -0.002238869 -0.03225862 1.58689e-4 -9.24055e-4 -0.03225862 -0.006083011 -0.001314878 -0.03225862 -0.00642246 -0.001483619 -0.03225862 -0.006911814 -0.002045512 -0.03225862 -0.01489204 1.6356e-4 0.03174132 0.002245068 0.001264572 0.03174132 0.001865386 0.002028286 0.03174132 9.86024e-4 0.001870214 0.03174132 -0.001258373 0.002249956 0.03174132 -1.57369e-4 -0.001253545 0.03174132 -0.001864016 -0.002017199 0.03174132 -9.84704e-4 -0.002238869 0.03174132 1.58689e-4 -0.001859188 0.03174132 0.001259684 -9.79834e-4 0.03174132 0.002023398 -5.04671e-5 0.03174132 -0.01503252 5.11415e-4 0.03174132 -0.007052242 4.12888e-4 0.03174132 -0.006544113 7.34752e-5 0.03174132 -0.006153225 -2.19228e-4 0.03174132 -0.01552188 -6.10058e-4 0.03174132 -0.01586127 -0.001118183 0.03174132 -0.01595979 -0.001607537 0.03174132 -0.01579105 -0.001946985 0.03174132 -0.01540023 -0.002045512 0.03174132 -0.01489204 -0.001483619 0.03174132 -0.006911814 -1.52499e-4 0.03174132 -0.002243757 -0.001314878 0.03174132 -0.00642246 9.90895e-4 0.03174132 -0.002022087 -9.24055e-4 0.03174132 -0.006083011 -4.15881e-4 0.03174132 -0.005984485 -0.003606975 0.02224135 -0.02781426 -0.003386437 0.02306634 -0.02782982 -0.002784013 0.02367025 -0.0278722 -0.001961052 0.02389132 -0.02793014 -0.001138091 0.02367025 -0.02798813 -5.35641e-4 0.02306634 -0.02803051 -3.1513e-4 0.02224135 -0.02804607 -5.35641e-4 0.02141636 -0.02803051 -0.001138091 0.02081239 -0.02798813 -0.003386437 0.02141636 -0.02782982 -0.002784013 0.02081239 -0.0278722 -0.003386437 -0.02358359 -0.02782982 -0.003606975 -0.0227586 -0.02781426 -0.003386437 -0.02193361 -0.02782982 -0.002784013 -0.0213297 -0.0278722 -0.001961052 0.02059131 -0.02793014 -0.001961052 -0.02110862 -0.02793014 -0.001138091 -0.0213297 -0.02798813 -5.35641e-4 -0.02193361 -0.02803051 -3.1513e-4 -0.0227586 -0.02804607 -5.35641e-4 -0.02358359 -0.02803051 -0.001138091 -0.02418756 -0.02798813 -0.001961052 -0.02440863 -0.02793014 -0.002784013 -0.02418756 -0.0278722</float_array>
          <technique_common>
            <accessor source="#camera_stand_Link-mesh-positions-array" count="242" stride="3">
              <param name="X" type="float"/>
              <param name="Y" type="float"/>
              <param name="Z" type="float"/>
            </accessor>
          </technique_common>
        </source>
        <source id="camera_stand_Link-mesh-normals">
          <float_array id="camera_stand_Link-mesh-normals-array" count="1512">-0.9975305 0 0.07023477 -0.9975305 0 0.07023477 -0.9975304 0 0.07023555 -0.9975304 0 0.07023555 -0.9975305 -2.85764e-7 0.07023489 -0.9975305 -2.95917e-7 0.07023471 -0.9975304 3.11003e-7 0.07023531 -0.9975304 3.98038e-7 0.07023549 -0.9975304 8.91233e-7 0.07023566 -0.9975305 -1.41576e-7 0.07023477 -0.9975305 0 0.07023513 -0.9975305 0 0.07023513 -0.979829 0 0.1998381 -0.979829 0 0.1998381 -0.89472 0 0.4466274 -0.89472 0 0.4466274 -0.7486379 0 0.6629793 -0.7486379 0 0.6629793 -0.5515369 0 0.8341505 -0.5515369 0 0.8341505 -0.3168486 0 0.9484761 -0.3168486 0 0.9484761 -0.06057018 0 0.9981639 -0.06057018 0 0.9981639 0.1998382 0 0.979829 0.1998382 0 0.979829 0.4466275 0 0.89472 0.4466275 0 0.89472 0.6629794 0 0.7486376 0.6629794 0 0.7486376 0.8341506 0 0.5515368 0.8341506 0 0.5515368 0.9484758 0 0.3168495 0.9484758 0 0.3168495 0.9981639 0 0.06056946 0.9981639 0 0.06056946 0.9975305 0 -0.07023519 0.9975305 0 -0.07023519 0.9975304 1.52252e-6 -0.07023566 0.9975305 -1.07227e-6 -0.07023477 0.9975305 -1.07691e-6 -0.07023477 0.9975305 4.96678e-7 -0.07023465 0.9975305 5.29169e-7 -0.07023465 0.9975305 -1.07691e-6 -0.07023543 0.9975305 -1.05834e-6 -0.07023537 0.9975305 0 -0.07023417 0.9975304 0 -0.07023566 0.9975304 0 -0.07023566 0.9975305 0 -0.07023459 0.9975304 8.86592e-7 -0.07023566 0.9975306 -7.76116e-7 -0.07023417 0.9975305 -2.55101e-7 -0.07023429 0.9975305 5.44247e-7 -0.07023566 0.9975304 6.28304e-7 -0.07023572 0.9975305 2.07522e-7 -0.07023417 0.9975305 0 -0.07023519 0.9975305 0 -0.07023519 -0.979829 0 0.1998381 -0.979829 0 0.1998381 -0.89472 0 0.4466274 -0.89472 0 0.4466274 -0.7486379 0 0.6629793 -0.7486379 0 0.6629793 -0.5515369 0 0.8341505 -0.5515369 0 0.8341505 -0.3168486 0 0.9484761 -0.3168486 0 0.9484761 -0.06057018 0 0.9981639 -0.06057018 0 0.9981639 0.1998382 0 0.979829 0.1998382 0 0.979829 0.4466275 0 0.89472 0.4466275 0 0.89472 0.6629794 0 0.7486376 0.6629794 0 0.7486376 0.8341506 0 0.5515368 0.8341506 0 0.5515368 0.9484758 0 0.3168495 0.9484758 0 0.3168495 0.9981639 0 0.06056946 0.9981639 0 0.06056946 -0.9975305 0 0.07023513 -0.9975305 0 0.07023513 -0.9975305 -6.66134e-7 0.07023477 -0.9975304 0 0.07023555 -0.9975304 -1.68721e-7 0.07023578 -0.9975305 1.46446e-7 0.07023459 -0.9975305 -1.55973e-7 0.07023477 -0.9975305 -4.96028e-7 0.07023531 -0.9975305 2.15374e-7 0.07023513 0 -1 0 0 -1 0 0 -1 0 0 -1 0 0 -1 0 0 -1 0 0 -1 0 0 -1 0 0 -1 0 0 -1 0 0 -1 0 0 -1 0 0 -1 0 0 -1 0 0 -1 0 0 -1 0 0 -1 0 0 -1 0 0 -1 0 0 -1 0 0 -1 0 0 -1 0 0 -1 0 0 -1 0 0 -1 0 0 -1 0 0 -1 0 0 -1 0 0 -1 0 0 -1 0 0 -1 0 0 -1 0 0 -1 0 0 -1 0 0 -1 0 0 -1 0 0 -1 0 0 -1 0 0 -1 0 0 -1 0 0 -1 0 0 -1 0 0 -1 0 0 1 0 0 1 0 0 1 0 0 1 0 0 1 0 0 1 0 0 1 0 0 1 0 0 1 0 0 1 0 0 1 0 0 1 0 0 1 0 0 1 0 0 1 0 0 1 0 0 1 0 0 1 0 0 1 0 0 1 0 0 1 0 0 1 0 0 1 0 0 1 0 0 1 0 0 1 0 0 1 0 0 1 0 0 1 0 0 1 0 0 1 0 0 1 0 0 1 0 0 1 0 0 1 0 0 1 0 0 1 0 0 1 0 0 1 0 0 1 0 0 1 0 0 1 0 0 1 0 -0.0702328 -2.7884e-6 -0.9975306 -0.07023435 1.22785e-6 -0.9975305 -0.07023513 0 -0.9975305 -0.07023447 -1.03398e-6 -0.9975305 -0.07023644 1.87673e-6 -0.9975304 -0.0702393 4.52068e-6 -0.9975302 -0.07023501 0 -0.9975305 -0.07023787 -4.7493e-7 -0.9975303 -0.07023644 -1.88907e-6 -0.9975304 -0.07023286 2.72356e-6 -0.9975306 -0.07023531 0 -0.9975304 -0.07022744 -1.25786e-6 -0.997531 -0.07023787 4.78055e-7 -0.9975303 -0.0702328 2.7884e-6 -0.9975306 -0.07023942 -4.556e-6 -0.9975302 -0.07023495 0 -0.9975305 -0.07023835 0 -0.9975302 -0.07023423 0 -0.9975305 -0.07023423 0 -0.9975305 -0.07023406 0 -0.9975305 -0.07023644 1.88907e-6 -0.9975304 -0.07023441 -1.21977e-6 -0.9975305 -0.07023513 0 -0.9975305 -0.07023453 1.03398e-6 -0.9975305 -0.07023644 -1.88907e-6 -0.9975304 -0.07023406 0 -0.9975305 -0.07023835 0 -0.9975302 -0.07023495 0 -0.9975305 -0.0702393 4.45004e-6 -0.9975302 -0.07023286 -2.7219e-6 -0.9975306 -0.01370221 -0.9807851 -0.1946093 -0.01370221 -0.9807851 -0.1946089 -0.03902059 -0.8314698 -0.5541979 -0.03902059 -0.8314691 -0.554199 -0.05839836 -0.5555699 -0.8294165 -0.05839836 -0.5555699 -0.8294165 -0.06888556 -0.1950904 -0.9783632 -0.06888556 -0.1950905 -0.9783632 -0.01370221 0.9807851 -0.1946089 -0.01370227 0.9807851 -0.1946094 -0.03902065 0.8314691 -0.554199 -0.03902047 0.8314698 -0.554198 -0.05839836 0.5555698 -0.8294165 -0.05839836 0.55557 -0.8294165 -0.06888556 0.1950905 -0.9783632 -0.06888556 0.1950904 -0.9783632 0 1 0 0 1 0 0 1 0 0 1 0 0 1 0 0 1 0 0 1 0 0 1 0 0 1 0 0 1 0 0 1 0 0 1 0 0 1 0 0 1 0 0 1 0 0 1 0 0 1 0 0 1 0 0 1 0 0 1 0 0 1 0 0 1 0 0 1 0 0 1 0 0 1 0 0 1 0 0 1 0 0 1 0 0 1 0 0 1 0 0 1 0 0 1 0 0 1 0 0 1 0 0 1 0 0 1 0 0 1 0 0 1 0 0 1 0 0 1 0 0 1 0 0 1 0 0 1 0 0 -1 0 0 -1 0 0 -1 0 0 -1 0 0 -1 0 0 -1 0 0 -1 0 0 -1 0 0 -1 0 0 -1 0 0 -1 0 0 -1 0 0 -1 0 0 -1 0 0 -1 0 0 -1 0 0 -1 0 0 -1 0 0 -1 0 0 -1 0 0 -1 0 0 -1 0 0 -1 0 0 -1 0 0 -1 0 0 -1 0 0 -1 0 0 -1 0 0 -1 0 0 -1 0 0 -1 0 0 -1 0 0 -1 0 0 -1 0 0 -1 0 0 -1 0 0 -1 0 0 -1 0 0 -1 0 0 -1 0 0 -1 0 0 -1 0 0 -1 0 0.07023286 -2.7219e-6 0.9975306 0.07023638 1.83351e-6 0.9975304 0.07023441 -1.11476e-6 0.9975305 0.07023513 0 0.9975305 0.07023441 1.2117e-6 0.9975305 0.07023644 -1.88907e-6 0.9975304 0.07023578 -1.0708e-6 0.9975304 0.07023483 0 0.9975305 0.07023793 4.94845e-7 0.9975302 0.07023787 4.78055e-7 0.9975303 0.07023912 4.34679e-6 0.9975302 0.07023501 0 0.9975305 0.07023769 -4.49933e-7 0.9975303 0.07023286 2.7219e-6 0.9975306 0.0702393 -4.44732e-6 0.9975302 0.07023495 0 0.9975305 0.07023823 0 0.9975302 0.07023417 0 0.9975305 0.07023417 0 0.9975306 0.07023406 0 0.9975305 0.07023406 0 0.9975305 0.07023835 0 0.9975302 0.07023495 0 0.9975305 0.07023328 -1.74959e-6 0.9975306 0.07023578 1.0708e-6 0.9975304 0.07023644 1.88907e-6 0.9975304 0.07023441 -1.2117e-6 0.9975305 0.07023513 0 0.9975305 0.07023447 1.13092e-6 0.9975305 0.07023638 -1.83351e-6 0.9975304 0.06784194 0.2588175 0.9635409 0.06784206 0.2588209 0.9635399 0.04966396 0.7071055 0.7053618 0.04966396 0.7071055 0.7053619 0.01817816 0.9659261 0.2581793 0.01817816 0.9659258 0.2581802 0.06888556 -0.1950903 0.9783632 0.06888556 -0.1950901 0.9783633 0.0583983 -0.5555716 0.8294153 0.0583986 -0.5555683 0.8294176 0.03902065 -0.8314691 0.554199 0.03902041 -0.8314706 0.5541968 0.01370221 -0.9807851 0.1946093 0.01370221 -0.9807851 0.1946093 0.1903377 0 -0.9817187 0.1903377 0 -0.9817187 0.6556969 0 -0.7550242 0.6556969 0 -0.7550242 0.9453622 0 -0.326022 0.9453622 0 -0.326022 0.9817185 0 0.1903386 0.9817185 0 0.1903386 0.7550243 0 0.6556968 0.7550243 0 0.6556968 0.3260224 0 0.945362 0.3260224 0 0.945362 -0.1903377 0 0.9817187 -0.1903377 0 0.9817187 -0.6556969 0 0.7550242 -0.6556969 0 0.7550242 -0.9453621 0 0.3260222 -0.9453621 0 0.3260222 -0.9817185 0 -0.1903386 -0.9817185 0 -0.1903386 -0.7550242 0 -0.655697 -0.7550242 0 -0.655697 -0.3260224 0 -0.945362 -0.3260224 0 -0.945362 0.1903377 0 -0.9817187 0.1903377 0 -0.9817187 0.6556969 0 -0.7550242 0.6556969 0 -0.7550242 0.9453622 0 -0.326022 0.9453622 0 -0.326022 0.9817185 0 0.1903386 0.9817185 0 0.1903386 0.7550243 0 0.6556968 0.7550243 0 0.6556968 0.3260224 0 0.945362 0.3260224 0 0.945362 -0.1903377 0 0.9817187 -0.1903377 0 0.9817187 -0.6556969 0 0.7550242 -0.6556969 0 0.7550242 -0.9453621 0 0.3260222 -0.9453621 0 0.3260222 -0.9817185 0 -0.1903386 -0.9817185 0 -0.1903386 -0.7550242 0 -0.655697 -0.7550242 0 -0.655697 -0.3260224 0 -0.945362 -0.3260224 0 -0.945362 0.9635406 0.2588184 -0.06784158 0.9635406 0.2588184 -0.06784158 0.7053608 0.7071065 -0.04966348 0.7053602 0.7071071 -0.04966378 0.2581784 0.9659262 -0.0181781 0.2581787 0.9659261 -0.01817798 -0.258179 0.9659261 0.01817798 -0.2581784 0.9659262 0.01817822 -0.7053608 0.7071066 0.04966413 -0.7053608 0.7071065 0.04966413 -0.9635403 0.2588194 0.06784242 -0.9635408 0.2588177 0.0678417 -0.9635403 -0.2588199 0.06784164 -0.9635406 -0.2588182 0.06784248 -0.7053608 -0.7071066 0.04966413 -0.7053607 -0.7071066 0.04966413 -0.258181 -0.9659255 0.0181784 -0.2581805 -0.9659257 0.0181781 0.2581804 -0.9659257 -0.0181781 0.2581807 -0.9659256 -0.01817822 0.7053608 -0.7071066 -0.04966378 0.7053602 -0.7071071 -0.04966342 0.9635405 -0.2588189 -0.06784158 0.9635405 -0.2588189 -0.06784158 0.9635405 0.2588189 -0.06784158 0.9635405 0.2588189 -0.06784158 0.7053608 0.7071065 -0.04966348 0.7053602 0.7071071 -0.04966378 0.2581804 0.9659257 -0.01817822 0.2581807 0.9659256 -0.0181781 -0.258181 0.9659256 0.01817816 -0.2581804 0.9659257 0.01817834 -0.7053608 0.7071066 0.04966413 -0.7053608 0.7071065 0.04966413 -0.9635401 0.2588199 0.06784242 -0.9635407 0.2588182 0.0678417 -0.9635404 -0.2588194 0.0678417 -0.9635407 -0.2588177 0.06784248 -0.7053608 -0.7071066 0.04966413 -0.7053607 -0.7071066 0.04966413 -0.258179 -0.9659261 0.01817822 -0.2581784 -0.9659262 0.01817798 0.2581784 -0.9659262 -0.01817798 0.2581787 -0.9659261 -0.0181781 0.7053608 -0.7071066 -0.04966378 0.7053602 -0.7071071 -0.04966342 0.9635406 -0.2588184 -0.06784158 0.9635406 -0.2588184 -0.06784158 -0.9975305 0 0.07023519 -0.9975305 0 0.07023519 -0.9817185 0 -0.1903384 -0.9817185 0 -0.1903384 -0.7550243 0 -0.6556969 -0.7550243 0 -0.6556969 -0.3260214 0 -0.9453623 -0.3260214 0 -0.9453623 0.1903378 0 -0.9817187 0.1903378 0 -0.9817187 0.655696 0 -0.755025 0.655696 0 -0.755025 0.9453623 0 -0.3260217 0.9453623 0 -0.3260217 0.9975305 0 -0.07023519 0.9975305 0 -0.07023519 0.9817185 0 0.1903381 0.9817185 0 0.1903381 0.755025 0 0.655696 0.755025 0 0.655696 0.3260182 0 0.9453635 0.3260182 0 0.9453635 -0.1903318 0 0.9817198 -0.1903318 0 0.9817198 -0.6556981 0 0.7550233 -0.6556981 0 0.7550233 -0.9453623 0 0.3260214 -0.9453623 0 0.3260214 0.9817185 0 0.1903381 0.9817185 0 0.1903381 0.755025 0 0.655696 0.755025 0 0.655696 0.3260182 0 0.9453635 0.3260182 0 0.9453635 -0.1903318 0 0.9817198 -0.1903318 0 0.9817198 -0.6556981 0 0.7550233 -0.6556981 0 0.7550233 -0.9453623 0 0.3260214 -0.9453623 0 0.3260214 0.9975305 0 -0.07023519 0.9975305 0 -0.07023519 -0.9817185 0 -0.1903384 -0.9817185 0 -0.1903384 -0.7550243 0 -0.6556969 -0.7550243 0 -0.6556969 -0.3260214 0 -0.9453623 -0.3260214 0 -0.9453623 0.1903378 0 -0.9817187 0.1903378 0 -0.9817187 0.655696 0 -0.755025 0.655696 0 -0.755025 0.9453623 0 -0.3260217 0.9453623 0 -0.3260217 -0.9975305 0 0.07023519 -0.9975305 0 0.07023519</float_array>
          <technique_common>
            <accessor source="#camera_stand_Link-mesh-normals-array" count="504" stride="3">
              <param name="X" type="float"/>
              <param name="Y" type="float"/>
              <param name="Z" type="float"/>
            </accessor>
          </technique_common>
        </source>
        <vertices id="camera_stand_Link-mesh-vertices">
          <input semantic="POSITION" source="#camera_stand_Link-mesh-positions"/>
        </vertices>
        <triangles count="504">
          <input semantic="VERTEX" source="#camera_stand_Link-mesh-vertices" offset="0"/>
          <input semantic="NORMAL" source="#camera_stand_Link-mesh-normals" offset="1"/>
          <p>0 0 1 0 2 0 2 1 1 1 3 1 4 2 5 2 6 2 6 3 5 3 7 3 6 4 7 4 8 4 8 5 7 5 9 5 8 6 9 6 10 6 10 7 9 7 11 7 10 8 11 8 0 8 0 9 11 9 1 9 12 10 13 10 4 10 4 11 13 11 5 11 13 12 12 12 14 12 13 13 14 13 15 13 15 14 14 14 16 14 15 15 16 15 17 15 17 16 16 16 18 16 17 17 18 17 19 17 19 18 18 18 20 18 19 19 20 19 21 19 21 20 20 20 22 20 21 21 22 21 23 21 23 22 22 22 24 22 23 23 24 23 25 23 25 24 24 24 26 24 25 25 26 25 27 25 27 26 26 26 28 26 27 27 28 27 29 27 29 28 28 28 30 28 29 29 30 29 31 29 31 30 30 30 32 30 31 31 32 31 33 31 33 32 32 32 34 32 33 33 34 33 35 33 35 34 34 34 36 34 35 35 36 35 37 35 38 36 39 36 36 36 36 37 39 37 37 37 40 38 41 38 42 38 42 39 41 39 43 39 42 40 43 40 44 40 44 41 43 41 45 41 44 42 45 42 46 42 46 43 45 43 47 43 46 44 47 44 38 44 38 45 47 45 39 45 48 46 49 46 40 46 40 47 49 47 41 47 50 48 51 48 52 48 49 49 48 49 53 49 53 50 48 50 54 50 53 51 54 51 55 51 55 52 54 52 50 52 55 53 50 53 56 53 56 54 50 54 52 54 57 55 58 55 51 55 51 56 58 56 52 56 59 57 60 57 61 57 59 58 61 58 62 58 62 59 61 59 63 59 62 60 63 60 64 60 64 61 63 61 65 61 64 62 65 62 66 62 66 63 65 63 67 63 66 64 67 64 68 64 68 65 67 65 69 65 68 66 69 66 70 66 70 67 69 67 71 67 70 68 71 68 72 68 72 69 71 69 73 69 72 70 73 70 74 70 74 71 73 71 75 71 74 72 75 72 76 72 76 73 75 73 77 73 76 74 77 74 78 74 78 75 77 75 79 75 78 76 79 76 80 76 80 77 79 77 81 77 80 78 81 78 82 78 82 79 81 79 58 79 82 80 58 80 57 80 83 81 84 81 59 81 59 82 84 82 60 82 85 83 2 83 3 83 84 84 83 84 86 84 86 85 83 85 87 85 86 86 87 86 88 86 88 87 87 87 85 87 88 88 85 88 89 88 89 89 85 89 3 89 90 90 91 90 73 90 92 91 77 91 91 91 91 92 77 92 75 92 91 93 75 93 73 93 93 94 58 94 94 94 94 95 58 95 81 95 94 96 81 96 92 96 92 97 81 97 79 97 92 98 79 98 77 98 95 99 96 99 60 99 60 100 96 100 97 100 60 101 97 101 61 101 61 102 97 102 98 102 99 103 65 103 98 103 98 104 65 104 63 104 98 105 63 105 61 105 100 106 52 106 101 106 101 107 52 107 58 107 101 108 58 108 102 108 102 109 58 109 93 109 102 110 93 110 103 110 100 111 104 111 52 111 52 112 104 112 105 112 52 113 105 113 84 113 84 114 105 114 106 114 84 115 106 115 107 115 107 116 108 116 84 116 84 117 108 117 109 117 84 118 109 118 110 118 73 119 71 119 90 119 90 120 71 120 69 120 90 121 69 121 99 121 99 122 69 122 67 122 99 123 67 123 65 123 60 124 84 124 95 124 95 125 84 125 110 125 95 126 110 126 111 126 111 127 110 127 112 127 111 128 112 128 113 128 113 129 112 129 114 129 113 130 114 130 93 130 93 131 114 131 115 131 93 132 115 132 103 132 116 133 117 133 118 133 118 134 117 134 119 134 118 135 119 135 120 135 121 136 122 136 5 136 5 137 122 137 123 137 5 138 123 138 39 138 39 139 123 139 124 139 124 140 125 140 39 140 39 141 125 141 126 141 39 142 126 142 127 142 27 143 128 143 129 143 130 144 23 144 129 144 129 145 23 145 25 145 129 146 25 146 27 146 131 147 19 147 130 147 130 148 19 148 21 148 130 149 21 149 23 149 37 150 39 150 132 150 132 151 39 151 127 151 132 152 127 152 116 152 116 153 127 153 133 153 116 154 133 154 117 154 132 155 134 155 37 155 37 156 134 156 135 156 37 157 135 157 35 157 35 158 135 158 136 158 27 159 29 159 128 159 128 160 29 160 31 160 128 161 31 161 136 161 136 162 31 162 33 162 136 163 33 163 35 163 120 164 13 164 137 164 137 165 13 165 15 165 137 166 15 166 131 166 131 167 15 167 17 167 131 168 17 168 19 168 119 169 138 169 120 169 120 170 138 170 139 170 120 171 139 171 13 171 13 172 139 172 140 172 13 173 140 173 5 173 5 174 140 174 141 174 5 175 141 175 121 175 41 176 142 176 143 176 144 177 1 177 145 177 145 178 1 178 41 178 145 179 41 179 146 179 146 180 41 180 143 180 142 181 41 181 147 181 147 182 41 182 49 182 147 183 49 183 148 183 144 184 149 184 1 184 1 185 149 185 150 185 1 186 150 186 3 186 3 187 150 187 151 187 3 188 151 188 152 188 153 189 154 189 49 189 49 190 154 190 155 190 49 191 155 191 148 191 148 192 155 192 156 192 148 193 156 193 157 193 157 194 156 194 158 194 157 195 158 195 152 195 159 196 160 196 3 196 3 197 160 197 161 197 3 198 161 198 49 198 49 199 161 199 162 199 49 200 162 200 153 200 158 201 163 201 152 201 152 202 163 202 164 202 152 203 164 203 3 203 3 204 164 204 165 204 3 205 165 205 159 205 52 206 84 206 86 206 52 207 86 207 56 207 56 208 86 208 88 208 56 209 88 209 55 209 55 210 88 210 89 210 55 211 89 211 53 211 53 212 89 212 3 212 53 213 3 213 49 213 5 214 39 214 47 214 5 215 47 215 7 215 7 216 47 216 45 216 7 217 45 217 9 217 9 218 45 218 43 218 9 219 43 219 11 219 11 220 43 220 41 220 11 221 41 221 1 221 166 222 167 222 168 222 168 223 167 223 169 223 168 224 169 224 170 224 171 225 172 225 83 225 83 226 172 226 173 226 83 227 173 227 51 227 51 228 173 228 174 228 174 229 175 229 51 229 51 230 175 230 176 230 51 231 176 231 177 231 74 232 178 232 179 232 180 233 70 233 179 233 179 234 70 234 72 234 179 235 72 235 74 235 181 236 66 236 180 236 180 237 66 237 68 237 180 238 68 238 70 238 57 239 51 239 182 239 182 240 51 240 177 240 182 241 177 241 166 241 166 242 177 242 183 242 166 243 183 243 167 243 182 244 184 244 57 244 57 245 184 245 185 245 57 246 185 246 82 246 82 247 185 247 186 247 74 248 76 248 178 248 178 249 76 249 78 249 178 250 78 250 186 250 186 251 78 251 80 251 186 252 80 252 82 252 170 253 59 253 187 253 187 254 59 254 62 254 187 255 62 255 181 255 181 256 62 256 64 256 181 257 64 257 66 257 169 258 188 258 170 258 170 259 188 259 189 259 170 260 189 260 59 260 59 261 189 261 190 261 59 262 190 262 83 262 83 263 190 263 191 263 83 264 191 264 171 264 192 265 193 265 26 265 194 266 30 266 193 266 193 267 30 267 28 267 193 268 28 268 26 268 195 269 36 269 196 269 196 270 36 270 34 270 196 271 34 271 194 271 194 272 34 272 32 272 194 273 32 273 30 273 197 274 198 274 12 274 12 275 198 275 199 275 12 276 199 276 14 276 14 277 199 277 200 277 201 278 18 278 200 278 200 279 18 279 16 279 200 280 16 280 14 280 202 281 38 281 203 281 203 282 38 282 36 282 203 283 36 283 204 283 204 284 36 284 195 284 204 285 195 285 205 285 202 286 206 286 38 286 38 287 206 287 207 287 38 288 207 288 4 288 4 289 207 289 208 289 4 290 208 290 209 290 209 291 210 291 4 291 4 292 210 292 211 292 4 293 211 293 212 293 26 294 24 294 192 294 192 295 24 295 22 295 192 296 22 296 201 296 201 297 22 297 20 297 201 298 20 298 18 298 12 299 4 299 197 299 197 300 4 300 212 300 197 301 212 301 213 301 213 302 212 302 214 302 213 303 214 303 215 303 215 304 214 304 216 304 215 305 216 305 195 305 195 306 216 306 217 306 195 307 217 307 205 307 0 308 218 308 219 308 219 309 220 309 0 309 0 310 220 310 221 310 0 311 221 311 40 311 40 312 221 312 222 312 222 313 223 313 40 313 40 314 223 314 224 314 40 315 224 315 48 315 48 316 224 316 225 316 48 317 225 317 226 317 218 318 0 318 227 318 227 319 0 319 2 319 227 320 2 320 228 320 229 321 230 321 2 321 2 322 230 322 231 322 2 323 231 323 228 323 228 324 231 324 232 324 228 325 232 325 233 325 233 326 232 326 234 326 233 327 234 327 226 327 234 328 235 328 226 328 226 329 235 329 236 329 226 330 236 330 48 330 48 331 236 331 237 331 48 332 237 332 238 332 238 333 239 333 48 333 48 334 239 334 240 334 48 335 240 335 2 335 2 336 240 336 241 336 2 337 241 337 229 337 48 338 2 338 54 338 54 339 2 339 85 339 54 340 85 340 50 340 50 341 85 341 87 341 50 342 87 342 51 342 51 343 87 343 83 343 0 344 40 344 10 344 10 345 40 345 42 345 10 346 42 346 8 346 8 347 42 347 44 347 8 348 44 348 6 348 6 349 44 349 46 349 6 350 46 350 4 350 4 351 46 351 38 351 129 352 192 352 130 352 130 353 192 353 201 353 130 354 201 354 131 354 131 355 201 355 200 355 131 356 200 356 137 356 137 357 200 357 199 357 137 358 199 358 120 358 120 359 199 359 198 359 120 360 198 360 118 360 118 361 198 361 197 361 118 362 197 362 116 362 116 363 197 363 213 363 116 364 213 364 132 364 132 365 213 365 215 365 132 366 215 366 134 366 134 367 215 367 195 367 134 368 195 368 135 368 135 369 195 369 196 369 135 370 196 370 136 370 136 371 196 371 194 371 136 372 194 372 128 372 128 373 194 373 193 373 128 374 193 374 129 374 129 375 193 375 192 375 179 376 90 376 180 376 180 377 90 377 99 377 180 378 99 378 181 378 181 379 99 379 98 379 181 380 98 380 187 380 187 381 98 381 97 381 187 382 97 382 170 382 170 383 97 383 96 383 170 384 96 384 168 384 168 385 96 385 95 385 168 386 95 386 166 386 166 387 95 387 111 387 166 388 111 388 182 388 182 389 111 389 113 389 182 390 113 390 184 390 184 391 113 391 93 391 184 392 93 392 185 392 185 393 93 393 94 393 185 394 94 394 186 394 186 395 94 395 92 395 186 396 92 396 178 396 178 397 92 397 91 397 178 398 91 398 179 398 179 399 91 399 90 399 150 400 218 400 151 400 151 401 218 401 227 401 151 402 227 402 152 402 152 403 227 403 228 403 152 404 228 404 157 404 157 405 228 405 233 405 157 406 233 406 148 406 148 407 233 407 226 407 148 408 226 408 147 408 147 409 226 409 225 409 147 410 225 410 142 410 142 411 225 411 224 411 142 412 224 412 143 412 143 413 224 413 223 413 143 414 223 414 146 414 146 415 223 415 222 415 146 416 222 416 145 416 145 417 222 417 221 417 145 418 221 418 144 418 144 419 221 419 220 419 144 420 220 420 149 420 149 421 220 421 219 421 149 422 219 422 150 422 150 423 219 423 218 423 165 424 230 424 159 424 159 425 230 425 229 425 159 426 229 426 160 426 160 427 229 427 241 427 160 428 241 428 161 428 161 429 241 429 240 429 161 430 240 430 162 430 162 431 240 431 239 431 162 432 239 432 153 432 153 433 239 433 238 433 153 434 238 434 154 434 154 435 238 435 237 435 154 436 237 436 155 436 155 437 237 437 236 437 155 438 236 438 156 438 156 439 236 439 235 439 156 440 235 440 158 440 158 441 235 441 234 441 158 442 234 442 163 442 163 443 234 443 232 443 163 444 232 444 164 444 164 445 232 445 231 445 164 446 231 446 165 446 165 447 231 447 230 447 127 448 126 448 203 448 203 449 126 449 202 449 127 450 203 450 133 450 133 451 203 451 204 451 133 452 204 452 117 452 117 453 204 453 205 453 117 454 205 454 119 454 119 455 205 455 217 455 119 456 217 456 138 456 138 457 217 457 216 457 138 458 216 458 139 458 139 459 216 459 214 459 139 460 214 460 140 460 140 461 214 461 212 461 141 462 140 462 211 462 211 463 140 463 212 463 141 464 211 464 121 464 121 465 211 465 210 465 121 466 210 466 122 466 122 467 210 467 209 467 122 468 209 468 123 468 123 469 209 469 208 469 123 470 208 470 124 470 124 471 208 471 207 471 124 472 207 472 125 472 125 473 207 473 206 473 125 474 206 474 126 474 126 475 206 475 202 475 191 476 109 476 171 476 171 477 109 477 108 477 171 478 108 478 172 478 172 479 108 479 107 479 172 480 107 480 173 480 173 481 107 481 106 481 173 482 106 482 174 482 174 483 106 483 105 483 174 484 105 484 175 484 175 485 105 485 104 485 175 486 104 486 176 486 176 487 104 487 100 487 109 488 191 488 110 488 110 489 191 489 190 489 177 490 101 490 183 490 183 491 101 491 102 491 183 492 102 492 167 492 167 493 102 493 103 493 167 494 103 494 169 494 169 495 103 495 115 495 169 496 115 496 188 496 188 497 115 497 114 497 188 498 114 498 189 498 189 499 114 499 112 499 189 500 112 500 190 500 190 501 112 501 110 501 101 502 177 502 100 502 100 503 177 503 176 503</p>
        </triangles>
      </mesh>
    </geometry>
  </library_geometries>
  <library_visual_scenes>
    <visual_scene id="Scene" name="Scene">
      <node id="camera_stand_Link" name="camera_stand_Link" type="NODE">
        <matrix sid="transform">0.9975641 0 -0.06975647 -1.16415e-10 0 1 0 0 0.06975647 0 0.9975641 0 0 0 0 1</matrix>
        <instance_geometry url="#camera_stand_Link-mesh" name="camera_stand_Link"/>
      </node>
    </visual_scene>
  </library_visual_scenes>
  <scene>
    <instance_visual_scene url="#Scene"/>
  </scene>
</COLLADA>